HIERARCHY
ROOT Hips
{
    OFFSET   0.000000   0.000000   0.000000
    CHANNELS 6 Xposition Yposition Zposition Zrotation Xrotation Yrotation
    JOINT Chest
    {
        OFFSET   0.000000   8.007230   0.000000
        CHANNELS 3 Zrotation Xrotation Yrotation
        JOINT Chest2
        {
            OFFSET   0.000000  22.077100   0.000000
            CHANNELS 3 Zrotation Xrotation Yrotation
            JOINT Neck
            {
                OFFSET   0.000000  23.254800   0.000000
                CHANNELS 3 Zrotation Xrotation Yrotation
                JOINT Head
                {
                    OFFSET   0.000010  14.370000   1.956600
                    CHANNELS 3 Zrotation Xrotation Yrotation
                    End Site
                    {
                        OFFSET   0.000000  19.566000   0.000000
                    }
                }
            }
            JOINT LeftCollar
            {
                OFFSET   3.911900  19.017000  -0.467062
                CHANNELS 3 Zrotation Xrotation Yrotation
                JOINT LeftShoulder
                {
                    OFFSET  10.383700   0.000000   0.000000
                    CHANNELS 3 Zrotation Xrotation Yrotation
                    JOINT LeftElbow
                    {
                        OFFSET  26.662100   0.001193   0.000835
                        CHANNELS 3 Zrotation Xrotation Yrotation
                        JOINT LeftWrist
                        {
                            OFFSET  28.869000  -0.000058  -0.000075
                            CHANNELS 3 Zrotation Xrotation Yrotation
                            JOINT LeftFinger0
                            {
                                OFFSET   2.044660  -2.323460   3.252850
                                CHANNELS 3 Zrotation Xrotation Yrotation
                                JOINT LeftFinger01
                                {
                                    OFFSET   3.088130   0.000000   0.000000
                                    CHANNELS 3 Zrotation Xrotation Yrotation
                                    JOINT LeftFinger02
                                    {
                                        OFFSET   2.639450   0.000000   0.000000
                                        CHANNELS 3 Zrotation Xrotation Yrotation
                                        End Site
                                        {
                                            OFFSET   2.582190   0.000000   0.000000
                                        }
                                    }
                                }
                            }
                            JOINT LeftFinger1
                            {
                                OFFSET   8.364480   0.000000   3.252850
                                CHANNELS 3 Zrotation Xrotation Yrotation
                                JOINT LeftFinger11
                                {
                                    OFFSET   4.646920   0.000000   0.000000
                                    CHANNELS 3 Zrotation Xrotation Yrotation
                                    JOINT LeftFinger12
                                    {
                                        OFFSET   2.323460   0.000000   0.000000
                                        CHANNELS 3 Zrotation Xrotation Yrotation
                                        End Site
                                        {
                                            OFFSET   2.273050   0.000000   0.000000
                                        }
                                    }
                                }
                            }
                            JOINT LeftFinger2
                            {
                                OFFSET   8.364490   0.000016   1.078090
                                CHANNELS 3 Zrotation Xrotation Yrotation
                                JOINT LeftFinger21
                                {
                                    OFFSET   5.111620   0.000000   0.000000
                                    CHANNELS 3 Zrotation Xrotation Yrotation
                                    JOINT LeftFinger22
                                    {
                                        OFFSET   2.788150   0.000012   0.000000
                                        CHANNELS 3 Zrotation Xrotation Yrotation
                                        End Site
                                        {
                                            OFFSET   2.727660   0.000000   0.000000
                                        }
                                    }
                                }
                            }
                            JOINT LeftFinger3
                            {
                                OFFSET   7.899780   0.000014  -1.078090
                                CHANNELS 3 Zrotation Xrotation Yrotation
                                JOINT LeftFinger31
                                {
                                    OFFSET   4.646930   0.000000   0.000000
                                    CHANNELS 3 Zrotation Xrotation Yrotation
                                    JOINT LeftFinger32
                                    {
                                        OFFSET   2.323470   0.000000   0.000000
                                        CHANNELS 3 Zrotation Xrotation Yrotation
                                        End Site
                                        {
                                            OFFSET   2.273050   0.000000   0.000000
                                        }
                                    }
                                }
                            }
                            JOINT LeftFinger4
                            {
                                OFFSET   7.435090   0.000000  -3.252850
                                CHANNELS 3 Zrotation Xrotation Yrotation
                                JOINT LeftFinger41
                                {
                                    OFFSET   3.717550   0.000000   0.000000
                                    CHANNELS 3 Zrotation Xrotation Yrotation
                                    JOINT LeftFinger42
                                    {
                                        OFFSET   1.858770   0.000000   0.000000
                                        CHANNELS 3 Zrotation Xrotation Yrotation
                                        End Site
                                        {
                                            OFFSET   1.818440   0.000000   0.000000
                                        }
                                    }
                                }
                            }
                        }
                    }
                }
            }
            JOINT RightCollar
            {
                OFFSET  -3.911900  19.017000  -0.467063
                CHANNELS 3 Zrotation Xrotation Yrotation
                JOINT RightShoulder
                {
                    OFFSET -10.383700   0.000023   0.000000
                    CHANNELS 3 Zrotation Xrotation Yrotation
                    JOINT RightElbow
                    {
                        OFFSET -26.662100   0.001246   0.001011
                        CHANNELS 3 Zrotation Xrotation Yrotation
                        JOINT RightWrist
                        {
                            OFFSET -28.869000  -0.000026  -0.000078
                            CHANNELS 3 Zrotation Xrotation Yrotation
                            JOINT RightFinger0
                            {
                                OFFSET  -2.044660  -2.323490   3.252850
                                CHANNELS 3 Zrotation Xrotation Yrotation
                                JOINT RightFinger01
                                {
                                    OFFSET  -3.088130   0.000000   0.000000
                                    CHANNELS 3 Zrotation Xrotation Yrotation
                                    JOINT RightFinger02
                                    {
                                        OFFSET  -2.639460   0.000000   0.000000
                                        CHANNELS 3 Zrotation Xrotation Yrotation
                                        End Site
                                        {
                                            OFFSET  -2.582190   0.000000   0.000000
                                        }
                                    }
                                }
                            }
                            JOINT RightFinger1
                            {
                                OFFSET  -8.364480   0.000000   3.252850
                                CHANNELS 3 Zrotation Xrotation Yrotation
                                JOINT RightFinger11
                                {
                                    OFFSET  -4.646920   0.000000   0.000000
                                    CHANNELS 3 Zrotation Xrotation Yrotation
                                    JOINT RightFinger12
                                    {
                                        OFFSET  -2.323470   0.000000   0.000000
                                        CHANNELS 3 Zrotation Xrotation Yrotation
                                        End Site
                                        {
                                            OFFSET  -2.273050   0.000000   0.000000
                                        }
                                    }
                                }
                            }
                            JOINT RightFinger2
                            {
                                OFFSET  -8.364480   0.000000   1.078090
                                CHANNELS 3 Zrotation Xrotation Yrotation
                                JOINT RightFinger21
                                {
                                    OFFSET  -5.111620   0.000000   0.000000
                                    CHANNELS 3 Zrotation Xrotation Yrotation
                                    JOINT RightFinger22
                                    {
                                        OFFSET  -2.788160   0.000000   0.000000
                                        CHANNELS 3 Zrotation Xrotation Yrotation
                                        End Site
                                        {
                                            OFFSET  -2.727660   0.000000   0.000000
                                        }
                                    }
                                }
                            }
                            JOINT RightFinger3
                            {
                                OFFSET  -7.899780   0.000000  -1.078090
                                CHANNELS 3 Zrotation Xrotation Yrotation
                                JOINT RightFinger31
                                {
                                    OFFSET  -4.646930   0.000000   0.000000
                                    CHANNELS 3 Zrotation Xrotation Yrotation
                                    JOINT RightFinger32
                                    {
                                        OFFSET  -2.323470   0.000000   0.000000
                                        CHANNELS 3 Zrotation Xrotation Yrotation
                                        End Site
                                        {
                                            OFFSET  -2.273050   0.000000   0.000000
                                        }
                                    }
                                }
                            }
                            JOINT RightFinger4
                            {
                                OFFSET  -7.435090   0.000000  -3.252850
                                CHANNELS 3 Zrotation Xrotation Yrotation
                                JOINT RightFinger41
                                {
                                    OFFSET  -3.717550   0.000000   0.000000
                                    CHANNELS 3 Zrotation Xrotation Yrotation
                                    JOINT RightFinger42
                                    {
                                        OFFSET  -1.858760   0.000000   0.000000
                                        CHANNELS 3 Zrotation Xrotation Yrotation
                                        End Site
                                        {
                                            OFFSET  -1.818440   0.000000   0.000000
                                        }
                                    }
                                }
                            }
                        }
                    }
                }
            }
        }
    }
    JOINT LeftHip
    {
        OFFSET   9.783010   0.000000   0.000000
        CHANNELS 3 Zrotation Xrotation Yrotation
        JOINT LeftKnee
        {
            OFFSET   0.000073 -41.789100   0.001749
            CHANNELS 3 Zrotation Xrotation Yrotation
            JOINT LeftAnkle
            {
                OFFSET   0.000111 -41.133200  -0.000179
                CHANNELS 3 Zrotation Xrotation Yrotation
                JOINT LeftToe
                {
                    OFFSET   0.000000  -6.358960  14.674500
                    CHANNELS 3 Zrotation Xrotation Yrotation
                    End Site
                    {
                        OFFSET   0.000000   0.000000   3.913200
                    }
                }
            }
        }
    }
    JOINT RightHip
    {
        OFFSET  -9.783010   0.000000   0.000000
        CHANNELS 3 Zrotation Xrotation Yrotation
        JOINT RightKnee
        {
            OFFSET   0.000424 -41.789200   0.005205
            CHANNELS 3 Zrotation Xrotation Yrotation
            JOINT RightAnkle
            {
                OFFSET   0.000000 -41.133200  -0.000155
                CHANNELS 3 Zrotation Xrotation Yrotation
                JOINT RightToe
                {
                    OFFSET   0.000000  -6.358960  14.674500
                    CHANNELS 3 Zrotation Xrotation Yrotation
                    End Site
                    {
                        OFFSET   0.000000   0.000000   3.913200
                    }
                }
            }
        }
    }
}
MOTION
Frames: 4
Frame Time:   0.016667
 -3.178350  89.296000   0.576987 -10.741500 -10.645400 -26.101300   1.592100   8.524490  -2.926720   3.689610  16.951100  -6.198610   3.365100   1.653420  -0.097252   5.540930   3.318050  11.889200  -1.016470   1.773750  -1.417310 -68.424100  25.743200  -8.933030  -3.348380  -8.962170 -20.127000  16.849100 -17.168300   6.167030  36.169300  29.316500 -59.650600 -33.926500   0.002474   0.003697 -11.963200  -0.002587  -0.001516 -32.850900   5.601720  -8.595700 -27.223300  -0.003018   0.002935 -19.056300  -0.003543   0.003772 -28.638300  -0.712660   1.305040 -38.096800  -0.005911   0.002667 -25.372500  -0.001621  -0.002331 -28.424300  -0.707734   1.307750 -35.407800  -0.004153   0.001879 -23.581600  -0.002471   0.001666 -31.655600  -0.780415   1.265820 -47.497400  -0.000342   0.003835 -31.633300  -0.004743   0.002227   2.637380  -4.274560   1.816980  26.647300 -22.225500  18.300100 -31.925200  -3.852110  30.991700 -41.337000  -8.725740   0.479036 -40.494000  30.465000  65.689200  25.461100  -0.040666  -0.079718   7.730580  -0.025924  -0.036487  31.645500   2.985650   4.843740  26.009200  -0.013297  -0.017552  18.206400  -0.012800  -0.008646  28.909600  -2.169500  -3.885640  43.506600  -0.026745  -0.020881  28.975400  -0.022863  -0.002875  28.235800  -3.245210  -6.001920  34.850000  -0.026498  -0.028588  23.210100  -0.024054  -0.010252  35.279700  -3.957440  -5.574330  53.218600  -0.022842  -0.008450  35.443600  -0.015690  -0.001656   6.019580  20.311100   7.613890   1.327960   0.074747  22.115500  -4.009540  -5.163640   5.957870   0.000000   0.000000   0.000000   5.676850  12.769000  -6.524520  -0.689177   3.568530  -1.201000   0.877172  -2.879930  17.945100  -0.000000   0.000000   0.000000
 -3.106510  89.306300   0.614039 -10.601000 -10.805200 -25.413700   1.559440   8.511030  -2.809650   3.613600  16.930100  -5.954960   3.276490   1.532150  -0.087690   5.392880   3.076860  11.713800  -1.083110   1.593650  -1.439030 -68.624400  25.688500  -8.771310  -3.238540  -8.798720 -20.075000  16.925800 -17.166500   6.290510  36.154700  29.337200 -59.631700 -33.966400   0.002467   0.003702 -11.983200  -0.002586  -0.001502 -32.892800   5.537700  -8.483510 -27.248000  -0.003020   0.002932 -19.073600  -0.003543   0.003770 -28.637200  -0.765676   1.401790 -38.104800  -0.005908   0.002668 -25.377800  -0.001622  -0.002328 -28.423500  -0.760434   1.404650 -35.431400  -0.004160   0.001876 -23.597200  -0.002470   0.001661 -31.669800  -0.839272   1.358930 -47.520000  -0.000338   0.003836 -31.648300  -0.004743   0.001981   2.887540  -4.387010   1.924410  28.357400 -22.081300  18.193100 -32.146400  -4.255610  32.179800 -36.994100 -11.111800   0.231288 -39.110500  29.886200  65.637200  27.074700  -0.022379  -0.032564   8.537400  -0.013962  -0.017697  32.564600   2.779190   4.350240  26.736700  -0.002715  -0.001598  18.715700  -0.002491  -0.002441  29.453700  -2.533110  -4.449030  44.826400  -0.012034  -0.005282  29.854400  -0.009517  -0.001302  28.354800  -3.473060  -6.418490  36.332000  -0.018091  -0.012602  24.197100  -0.015015  -0.002357  35.966700  -4.302080  -5.903340  54.283400  -0.010148  -0.002701  36.152700  -0.005610  -0.001405   6.010610  20.229300   7.592320   1.325360   0.076891  21.684600  -3.967030  -5.126090   5.722230   0.000000   0.000000   0.000000   5.635050  12.892000  -6.481470  -0.689216   3.511970  -1.391460   0.788453  -2.889470  17.364800  -0.000000   0.000000   0.000000
 -3.037680  89.319400   0.651575 -10.465700 -10.961400 -24.748500   1.531980   8.497100  -2.670050   3.526320  16.908600  -5.666050   3.184520   1.408100  -0.078303   5.239460   2.829870  11.466900  -1.168480   1.406270  -1.473300 -68.820500  25.636800  -8.601310  -3.136350  -8.640740 -19.972700  16.972300 -17.163100   6.409140  36.144100  29.343700 -59.632300 -34.003500   0.002459   0.003711 -12.001700  -0.002585  -0.001488 -32.926200   5.499260  -8.418150 -27.270900  -0.003024   0.002931 -19.089700  -0.003543   0.003766 -28.636400  -0.797358   1.459820 -38.112800  -0.005907   0.002668 -25.383200  -0.001624  -0.002326 -28.423400  -0.791925   1.462760 -35.454900  -0.004167   0.001875 -23.612900  -0.002468   0.001655 -31.679300  -0.873681   1.415080 -47.535200  -0.000334   0.003837 -31.658400  -0.004741   0.001496   3.153890  -4.505240   2.041320  30.144600 -21.773900  17.983800 -32.377600  -4.808840  33.306200 -32.262200 -13.685800   0.115818 -38.012900  29.402300  65.710400  28.146300   0.000443  -0.000141   9.073170   0.000174   0.000000  32.839500   2.576720   3.976980  26.940200   0.004469   0.004565  18.858100   0.003956  -0.001444  29.958100  -2.845640  -4.927410  45.203900  -0.007389  -0.003054  30.105800  -0.005301  -0.001078  28.390100  -3.616420  -6.701340  37.104900  -0.014884  -0.009102  24.711900  -0.011596  -0.001126  36.314900  -4.509490  -6.139900  54.817300  -0.003699  -0.001477  36.508300  -0.002026  -0.001152   5.999030  20.153000   7.570400   1.323620   0.079044  21.250800  -3.920820  -5.094220   5.513370  -0.000000   0.000000   0.000000   5.599650  13.017000  -6.418040  -0.688104   3.461670  -1.592620   0.706502  -2.900080  16.797300   0.000000   0.000000   0.000000
 -2.976510  89.334800   0.691007 -10.337700 -11.119000 -24.084100   1.510550   8.482770  -2.524640   3.454030  16.886100  -5.366260   3.083900   1.283650  -0.069098   5.072030   2.581680  11.179700  -1.290490   1.222290  -1.501560 -68.980600  25.618900  -8.441240  -3.039240  -8.496710 -19.837300  16.937600 -17.076200   6.495150  36.124300  29.310800 -59.649800 -34.026800   0.002464   0.003718 -12.013400  -0.002588  -0.001491 -32.925800   5.490470  -8.409910 -27.269000  -0.003027   0.002942 -19.088400  -0.003548   0.003763 -28.634300  -0.804796   1.473740 -38.074100  -0.005911   0.002668 -25.357400  -0.001621  -0.002331 -28.421300  -0.799295   1.476710 -35.430600  -0.004166   0.001879 -23.596700  -0.002467   0.001655 -31.659800  -0.880669   1.429120 -47.506100  -0.000338   0.003841 -31.639000  -0.004737   0.000891   3.419190  -4.576630   2.140650  31.953800 -21.034400  17.720500 -32.620100  -5.802480  34.155400 -27.137100 -16.369000   0.426670 -37.835000  29.528500  65.791600  28.385900   0.010750  -0.003886   9.192910   0.006715   0.008271  32.807500   2.477320   3.808880  26.903500   0.007394   0.005033  18.832400   0.006437  -0.001449  30.246700  -3.026560  -5.215430  45.610300  -0.006432  -0.003352  30.376500  -0.001563  -0.001141  28.449300  -3.611180  -6.695170  37.829500  -0.013406  -0.008249  25.194500  -0.010237  -0.000941  36.551400  -4.505770  -6.132390  55.158400   0.001716  -0.000759  36.735500  -0.000842  -0.000890   5.988270  20.102200   7.507510   1.324020   0.059423  20.834800  -3.868910  -5.052390   5.329600   0.000000   0.000000  -0.000000   5.562320  13.147900  -6.328780  -0.672160   3.423770  -1.872320   0.658157  -2.924090  16.292800  -0.000000   0.000000  -0.000000
